<svg xmlns:xlink="http://www.w3.org/1999/xlink" xmlns="http://www.w3.org/2000/svg" xmlns:ev="http://www.w3.org/2001/xml-events" width="1132" viewBox="0 0 1132 804" height="804"><style type="text/css"><![CDATA[
.st1 {fill:#454545;font-family:Arial;font-size:10pt}
.st2 {fill:#454545;font-family:Arial;font-size:9pt}
]]></style><defs/><g id="page1" transform="translate(5,5)"><rect stroke="#808080" fill="#ffffff" width="1123" y="0" height="794" x="0"/><g transform="translate(244.72,146)"/><path stroke="#595959" fill="#ffffff" id="shape1" d="M0,0L624.3,0L624.3,47L0,47L0,0z" transform="translate(51.72,71)"/><g id="shape2" transform="translate(51.79,47)"><text class="st1"><tspan y="16" x="8.1">NetWeaver Entwicklungsinfrastruktur</tspan></text></g><g id="shape3" transform="translate(51.79,82.5)"><text class="st1"><tspan y="16" x="9">CBS-Instances</tspan></text></g><g id="shape4" transform="translate(194,82.5)"><path stroke="#595959" fill="#ebebeb" d="M0,0L85,0L85,26L0,26L0,0z"/><text class="st2"><tspan y="16.5" x="32">Add</tspan></text></g><g transform="translate(51.72,138)"><path stroke="#595959" fill="#ffffff" id="shape5" d="M0,0L624.3,0L624.3,235.9L0,235.9L0,0z" transform="translate(0,29.1)"/><g id="shape6" transform="translate(0.07,0)"><text class="st1"><tspan y="16" x="8.1">NetWeaver Entwicklungsinfrastruktur</tspan></text></g><g id="shape7" transform="translate(0,38)"><text class="st1"><tspan y="17.3" x="9">CBS-Instances</tspan></text></g><g id="shape8" transform="translate(142.28,38)"><path stroke="#595959" fill="#ebebeb" d="M0,0L85,0L85,26.5L0,26.5L0,0z"/><text class="st2"><tspan y="16.8" x="32">Add</tspan></text></g><g id="shape9" transform="translate(104.14,90)"><text class="st1"><tspan y="16" x="40">URL</tspan></text></g><g id="shape10" transform="translate(227.28,90)"><path stroke="#595959" fill="#ffffff" d="M0,0L373,0L373,24L0,24L0,0z"/><text class="st1"><tspan y="16" x="11">CBS-URL (http://nwdihost.example.enterprise.com:53000)</tspan></text></g><g id="shape11" transform="translate(123.28,123)"><text class="st1"><tspan y="16" x="16">Credendtials</tspan></text></g><g transform="translate(227.28,125)"><g id="shape12" transform="translate(0,22)"><path stroke="#595959" fill="#ffffff" d="M0,0L373,0L373,60L0,60L0,0z"/><text class="st1"><tspan y="18" x="12">User1</tspan><tspan y="34" x="12">User2</tspan><tspan y="50" x="12">User3</tspan></text></g><g><g id="shape13"><path fill="#ffffff" d="M0,0L373,0L373,22L0,22L0,0z"/><path stroke="#595959" fill="none" d="M0,0L373,0L373,22L0,22L0,0zM353,0L353,22"/><text class="st1"><tspan y="15" x="11">List of Credentials for Authentication with CBS-Host</tspan></text></g><path stroke="#595959" fill="#7e7e7e" id="shape14" d="M0,0L7.9,0L4,4.4L0,0z" transform="translate(359.04,8.8)"/></g></g><g id="shape15" transform="translate(487.28,222)"><path stroke="#595959" fill="#ebebeb" d="M0,0L113,0L113,26L0,26L0,0z"/><text class="st2"><tspan y="16.5" x="11">Validate Settings</tspan></text></g></g></g></svg>